# xmcd
#
# Track frame offsets:
#	150
#	16154
#	29129
#	41802
#	57595
#	74045
#	128347
#	146068
#	159461
#	185036
#
# Disc length: 2659 seconds
#
# Revision: 0
# Processed by: cddbd v1.5.2PL0 Copyright (c) Steve Scherf et al.
# Submitted via: dBpowerAMP V4.0
#
DISCID=970a610a
DTITLE=Bardoti Raphaêl - Grooving Sax
DYEAR=2002
DGENRE=Blues
TTITLE0=Mustang Sally
TTITLE1=Can't sit down
TTITLE2=Coffee cup
TTITLE3=Pack it up
TTITLE4=Chiken heads
TTITLE5=Carla Mi Sol
TTITLE6=Night train
TTITLE7=Life's ups and down's
TTITLE8=Last night
TTITLE9=Watermelon man
EXTD=
EXTT0=
EXTT1=
EXTT2=
EXTT3=
EXTT4=
EXTT5=
EXTT6=
EXTT7=
EXTT8=
EXTT9=
PLAYORDER=
